<svg width="350" height="350" viewBox="0 0 350 350" fill="none" xmlns="http://www.w3.org/2000/svg">
<path d="M126.898 192V165.818H134.159V192H126.898ZM130.545 162.443C129.466 162.443 128.54 162.085 127.767 161.369C127.006 160.642 126.625 159.773 126.625 158.761C126.625 157.761 127.006 156.903 127.767 156.188C128.54 155.46 129.466 155.097 130.545 155.097C131.625 155.097 132.545 155.46 133.307 156.188C134.08 156.903 134.466 157.761 134.466 158.761C134.466 159.773 134.08 160.642 133.307 161.369C132.545 162.085 131.625 162.443 130.545 162.443ZM151.805 192.511C149.124 192.511 146.817 191.943 144.885 190.807C142.964 189.659 141.487 188.068 140.453 186.034C139.43 184 138.919 181.659 138.919 179.011C138.919 176.33 139.436 173.977 140.47 171.955C141.516 169.92 142.999 168.335 144.919 167.199C146.839 166.051 149.124 165.477 151.771 165.477C154.055 165.477 156.055 165.892 157.771 166.722C159.487 167.551 160.845 168.716 161.845 170.216C162.845 171.716 163.396 173.477 163.499 175.5H156.646C156.453 174.193 155.942 173.142 155.112 172.347C154.294 171.54 153.22 171.136 151.891 171.136C150.766 171.136 149.783 171.443 148.942 172.057C148.112 172.659 147.464 173.54 146.999 174.699C146.533 175.858 146.3 177.261 146.3 178.909C146.3 180.58 146.527 182 146.982 183.17C147.447 184.341 148.101 185.233 148.942 185.847C149.783 186.46 150.766 186.767 151.891 186.767C152.72 186.767 153.464 186.597 154.124 186.256C154.794 185.915 155.345 185.42 155.777 184.773C156.22 184.114 156.51 183.324 156.646 182.403H163.499C163.385 184.403 162.839 186.165 161.862 187.688C160.896 189.199 159.561 190.381 157.857 191.233C156.152 192.085 154.135 192.511 151.805 192.511ZM179.977 192.511C177.33 192.511 175.04 191.949 173.108 190.824C171.188 189.687 169.705 188.108 168.659 186.085C167.614 184.051 167.091 181.693 167.091 179.011C167.091 176.307 167.614 173.943 168.659 171.92C169.705 169.886 171.188 168.307 173.108 167.182C175.04 166.045 177.33 165.477 179.977 165.477C182.625 165.477 184.909 166.045 186.83 167.182C188.761 168.307 190.25 169.886 191.295 171.92C192.341 173.943 192.864 176.307 192.864 179.011C192.864 181.693 192.341 184.051 191.295 186.085C190.25 188.108 188.761 189.687 186.83 190.824C184.909 191.949 182.625 192.511 179.977 192.511ZM180.011 186.886C181.216 186.886 182.222 186.545 183.028 185.864C183.835 185.17 184.443 184.227 184.852 183.034C185.273 181.841 185.483 180.483 185.483 178.96C185.483 177.438 185.273 176.08 184.852 174.886C184.443 173.693 183.835 172.75 183.028 172.057C182.222 171.364 181.216 171.017 180.011 171.017C178.795 171.017 177.773 171.364 176.943 172.057C176.125 172.75 175.506 173.693 175.085 174.886C174.676 176.08 174.472 177.438 174.472 178.96C174.472 180.483 174.676 181.841 175.085 183.034C175.506 184.227 176.125 185.17 176.943 185.864C177.773 186.545 178.795 186.886 180.011 186.886ZM204.847 176.864V192H197.585V165.818H204.506V170.438H204.812C205.392 168.915 206.364 167.71 207.727 166.824C209.091 165.926 210.744 165.477 212.688 165.477C214.506 165.477 216.091 165.875 217.443 166.67C218.795 167.466 219.847 168.602 220.597 170.08C221.347 171.545 221.722 173.295 221.722 175.33V192H214.46V176.625C214.472 175.023 214.063 173.773 213.233 172.875C212.403 171.966 211.261 171.511 209.807 171.511C208.83 171.511 207.966 171.722 207.216 172.142C206.477 172.562 205.898 173.176 205.477 173.983C205.068 174.778 204.858 175.739 204.847 176.864Z" fill="black"/>
<path d="M350 175C350 271.65 271.65 350 175 350C78.3502 350 0 271.65 0 175C0 78.3502 78.3502 0 175 0C271.65 0 350 78.3502 350 175ZM52.5 175C52.5 242.655 107.345 297.5 175 297.5C242.655 297.5 297.5 242.655 297.5 175C297.5 107.345 242.655 52.5 175 52.5C107.345 52.5 52.5 107.345 52.5 175Z" fill="#D9D9D9"/>
<path d="M341.435 120.922C352.855 156.07 352.855 193.93 341.435 229.078C330.015 264.226 307.761 294.856 277.862 316.578C247.964 338.3 211.956 350 175 350C138.044 350 102.036 338.3 72.1375 316.578C42.2392 294.856 19.9852 264.226 8.56509 229.078C-2.85505 193.93 -2.85503 156.07 8.56514 120.922C19.9853 85.7743 42.2393 55.1444 72.1377 33.422C102.036 11.6996 138.044 -2.45245e-05 175 0L175 52.5C149.131 52.5 123.925 60.6897 102.996 75.8954C82.0675 91.1011 66.4897 112.542 58.4956 137.145C50.5015 161.749 50.5015 188.251 58.4956 212.855C66.4897 237.458 82.0674 258.899 102.996 274.105C123.925 289.31 149.131 297.5 175 297.5C200.869 297.5 226.075 289.31 247.004 274.105C267.933 258.899 283.51 237.458 291.504 212.855C299.499 188.251 299.499 161.749 291.504 137.145L341.435 120.922Z" fill="#3E51FF"/>
</svg>
